A young mute woman is raped and becomes pregnant, with disastrous consequences within her family. The film also sketches the social/economic situation in urban Mali in the 1970s, particularly in relation to the treatment of women

Language: Bambara
Subtitles: French and English
  http://www.imdb.com/title/tt0073421


      Format : AVI
      Format/Info : Audio Video Interleave
      File size : 698 MiB
      Duration : 1h 25mn
      Overall bit rate : 1 142 Kbps
      Writing application : VirtualDubMod 1.5.10.2 (build 2540/release)
      Writing library : VirtualDubMod build 2540/release
   Video #0
      ID : 0
      Format : MPEG-4 Visual
      Format profile : AdvancedSimple@L5
      Format settings, BVOP : Yes
      Format settings, QPel : No
      Format settings, GMC : No warppoints
      Format settings, Matrix : Default (H.263)
      Codec ID : XVID
      Codec ID/Hint : XviD
      Duration : 1h 25mn
      Bit rate : 1 053 Kbps
      Width : 544 pixels
      Height : 400 pixels
      Display aspect ratio : 4:3
      Frame rate : 25.000 fps
      Resolution : 24 bits
      Colorimetry : 4:2:0
      Scan type : Progressive
      Bits/(Pixel*Frame) : 0.194
      Stream size : 644 MiB (92%)
      Writing library : XviD 1.1.0 (UTC 2005-11-22)
   Audio #1
      ID : 1
      Format : MPEG Audio
      Format version : Version 1
      Format profile : Layer 3
      Codec ID : 55
      Codec ID/Hint : MP3
      Duration : 1h 25mn
      Bit rate mode : Variable
      Bit rate : 75.8 Kbps
      Minimum bit rate : 32.0 Kbps
      Channel(s) : 1 channel
      Sampling rate : 48.0 KHz
      Resolution : 16 bits
      Stream size : 46.3 MiB (7%)
      Alignment : Aligned on interleaves
      Interleave, duration : 24 ms (0.60 video frame)
      Interleave, preload duration : 415 ms
      Writing library : LAME3.90.
      Encoding settings : -m m -V 4 -q 2 -lowpass 17.4 --vbr-new -b 32

Upped KG: pa6sur